<mxfile host="app.diagrams.net" modified="2023-04-14T11:08:30.730Z" agent="Mozilla/5.0 (X11; Ubuntu; Linux x86_64; rv:109.0) Gecko/20100101 Firefox/112.0" etag="_CWTPm_sQFqz8cUEOHir" version="21.1.1" type="device">
  <diagram id="jcZP6RwkuZt7pyfUZEXf" name="Page-1">
    <mxGraphModel dx="1362" dy="822" grid="1" gridSize="10" guides="1" tooltips="1" connect="1" arrows="1" fold="1" page="1" pageScale="1" pageWidth="827" pageHeight="1169" math="0" shadow="0">
      <root>
        <mxCell id="0" />
        <mxCell id="1" parent="0" />
        <mxCell id="Zoo3l0SFgkOkhClSdUuT-35" value="" style="edgeStyle=orthogonalEdgeStyle;rounded=0;orthogonalLoop=1;jettySize=auto;html=1;strokeColor=#00FFFF;strokeWidth=2;fontSize=14;" parent="1" source="Zoo3l0SFgkOkhClSdUuT-1" target="Zoo3l0SFgkOkhClSdUuT-2" edge="1">
          <mxGeometry relative="1" as="geometry" />
        </mxCell>
        <mxCell id="Zoo3l0SFgkOkhClSdUuT-1" value="PhD" style="rounded=0;whiteSpace=wrap;html=1;fillColor=#f8cecc;strokeColor=#b85450;strokeWidth=2;fontSize=14;fontStyle=1" parent="1" vertex="1">
          <mxGeometry x="340" y="40" width="120" height="40" as="geometry" />
        </mxCell>
        <mxCell id="1Azex70Hqo9EGGP9AY3P-3" value="" style="edgeStyle=orthogonalEdgeStyle;rounded=0;orthogonalLoop=1;jettySize=auto;html=1;strokeColor=#00FFFF;strokeWidth=2;fontSize=14;" parent="1" source="Zoo3l0SFgkOkhClSdUuT-2" target="Zoo3l0SFgkOkhClSdUuT-16" edge="1">
          <mxGeometry relative="1" as="geometry" />
        </mxCell>
        <mxCell id="Zoo3l0SFgkOkhClSdUuT-2" value="Selection test typeâ€“ Small Ring and Small Punch chosen" style="rounded=0;whiteSpace=wrap;html=1;fillColor=#d5e8d4;strokeColor=#82b366;strokeWidth=2;fontSize=14;" parent="1" vertex="1">
          <mxGeometry x="300" y="120" width="200" height="50" as="geometry" />
        </mxCell>
        <mxCell id="Zoo3l0SFgkOkhClSdUuT-27" value="" style="edgeStyle=orthogonalEdgeStyle;rounded=0;orthogonalLoop=1;jettySize=auto;html=1;strokeColor=#00FFFF;strokeWidth=2;fontSize=14;" parent="1" source="Zoo3l0SFgkOkhClSdUuT-4" target="Zoo3l0SFgkOkhClSdUuT-10" edge="1">
          <mxGeometry relative="1" as="geometry" />
        </mxCell>
        <mxCell id="Zoo3l0SFgkOkhClSdUuT-4" value="Experimentation" style="rounded=0;whiteSpace=wrap;html=1;fillColor=#d5e8d4;strokeColor=#82b366;strokeWidth=2;fontSize=14;" parent="1" vertex="1">
          <mxGeometry x="100" y="320" width="120" height="40" as="geometry" />
        </mxCell>
        <mxCell id="Zoo3l0SFgkOkhClSdUuT-6" value="Devise new Analytical solution parameters" style="rounded=0;whiteSpace=wrap;html=1;fillColor=#d5e8d4;strokeColor=#82b366;strokeWidth=2;fontSize=14;" parent="1" vertex="1">
          <mxGeometry x="344" y="280" width="140" height="40" as="geometry" />
        </mxCell>
        <mxCell id="1Azex70Hqo9EGGP9AY3P-21" style="edgeStyle=orthogonalEdgeStyle;rounded=0;orthogonalLoop=1;jettySize=auto;html=1;strokeColor=#00FFFF;strokeWidth=2;fontSize=14;" parent="1" source="Zoo3l0SFgkOkhClSdUuT-7" target="Zoo3l0SFgkOkhClSdUuT-17" edge="1">
          <mxGeometry relative="1" as="geometry" />
        </mxCell>
        <mxCell id="Zoo3l0SFgkOkhClSdUuT-7" value="Experimentation. All cleaned and raw CSV + image data made open-source." style="rounded=0;whiteSpace=wrap;html=1;fillColor=#d5e8d4;strokeColor=#82b366;strokeWidth=2;fontSize=14;" parent="1" vertex="1">
          <mxGeometry x="520" y="340" width="240" height="60" as="geometry" />
        </mxCell>
        <mxCell id="Zoo3l0SFgkOkhClSdUuT-26" value="" style="edgeStyle=orthogonalEdgeStyle;rounded=0;orthogonalLoop=1;jettySize=auto;html=1;strokeColor=#00FFFF;entryX=0.5;entryY=0;entryDx=0;entryDy=0;strokeWidth=2;fontSize=14;" parent="1" source="Zoo3l0SFgkOkhClSdUuT-10" target="ieAb9yYBDIs8tBCekaEm-5" edge="1">
          <mxGeometry relative="1" as="geometry">
            <mxPoint x="160" y="520" as="targetPoint" />
          </mxGeometry>
        </mxCell>
        <mxCell id="Zoo3l0SFgkOkhClSdUuT-10" value="Feasibility of stereo computer vision-based imaging" style="rounded=0;whiteSpace=wrap;html=1;fillColor=#d5e8d4;strokeColor=#82b366;strokeWidth=2;fontSize=14;" parent="1" vertex="1">
          <mxGeometry x="80" y="440" width="160" height="80" as="geometry" />
        </mxCell>
        <mxCell id="1Azex70Hqo9EGGP9AY3P-7" value="" style="edgeStyle=orthogonalEdgeStyle;rounded=0;orthogonalLoop=1;jettySize=auto;html=1;strokeColor=#00FFFF;strokeWidth=2;fontSize=14;" parent="1" source="Zoo3l0SFgkOkhClSdUuT-16" target="1Azex70Hqo9EGGP9AY3P-6" edge="1">
          <mxGeometry relative="1" as="geometry" />
        </mxCell>
        <mxCell id="1Azex70Hqo9EGGP9AY3P-9" value="" style="edgeStyle=orthogonalEdgeStyle;rounded=0;orthogonalLoop=1;jettySize=auto;html=1;strokeColor=#00FFFF;strokeWidth=2;fontSize=14;" parent="1" source="Zoo3l0SFgkOkhClSdUuT-16" target="1Azex70Hqo9EGGP9AY3P-8" edge="1">
          <mxGeometry relative="1" as="geometry" />
        </mxCell>
        <mxCell id="Zoo3l0SFgkOkhClSdUuT-16" value="Design new Small Punch &amp;amp; Small Ring rigs" style="rounded=0;whiteSpace=wrap;html=1;fillColor=#d5e8d4;strokeColor=#82b366;strokeWidth=2;fontSize=14;" parent="1" vertex="1">
          <mxGeometry x="320" y="200" width="160" height="40" as="geometry" />
        </mxCell>
        <mxCell id="1Azex70Hqo9EGGP9AY3P-15" style="edgeStyle=orthogonalEdgeStyle;rounded=0;orthogonalLoop=1;jettySize=auto;html=1;entryX=0.5;entryY=0;entryDx=0;entryDy=0;strokeColor=#00FFFF;exitX=0.5;exitY=1;exitDx=0;exitDy=0;strokeWidth=2;fontSize=14;" parent="1" source="ieAb9yYBDIs8tBCekaEm-2" target="ieAb9yYBDIs8tBCekaEm-4" edge="1">
          <mxGeometry relative="1" as="geometry">
            <mxPoint x="349" y="620" as="targetPoint" />
          </mxGeometry>
        </mxCell>
        <mxCell id="ieAb9yYBDIs8tBCekaEm-1" value="" style="edgeStyle=orthogonalEdgeStyle;rounded=0;orthogonalLoop=1;jettySize=auto;html=1;strokeColor=#00FFFF;strokeWidth=2;fontSize=14;" edge="1" parent="1" source="Zoo3l0SFgkOkhClSdUuT-17" target="Zoo3l0SFgkOkhClSdUuT-18">
          <mxGeometry relative="1" as="geometry" />
        </mxCell>
        <mxCell id="Zoo3l0SFgkOkhClSdUuT-17" value="2D computer vision-based strain calculation" style="rounded=0;whiteSpace=wrap;html=1;fillColor=#d5e8d4;strokeColor=#82b366;strokeWidth=2;fontSize=14;" parent="1" vertex="1">
          <mxGeometry x="560" y="440" width="160" height="40" as="geometry" />
        </mxCell>
        <mxCell id="Zoo3l0SFgkOkhClSdUuT-31" value="" style="edgeStyle=orthogonalEdgeStyle;rounded=0;orthogonalLoop=1;jettySize=auto;html=1;strokeColor=#00FFFF;entryX=0.5;entryY=0;entryDx=0;entryDy=0;strokeWidth=2;fontSize=14;" parent="1" source="Zoo3l0SFgkOkhClSdUuT-18" target="ieAb9yYBDIs8tBCekaEm-2" edge="1">
          <mxGeometry relative="1" as="geometry">
            <mxPoint x="660" y="630" as="targetPoint" />
            <Array as="points" />
          </mxGeometry>
        </mxCell>
        <mxCell id="Zoo3l0SFgkOkhClSdUuT-18" value="Inverse numerical simulation via optimization procedures (&lt;b style=&quot;font-size: 14px;&quot;&gt;gradient-free and population-based methods&lt;/b&gt;) for parametric material evaluation" style="rounded=0;whiteSpace=wrap;html=1;fillColor=#d5e8d4;strokeColor=#82b366;strokeWidth=2;fontSize=14;" parent="1" vertex="1">
          <mxGeometry x="480" y="520" width="320" height="80" as="geometry" />
        </mxCell>
        <mxCell id="Zoo3l0SFgkOkhClSdUuT-38" value="&lt;b style=&quot;font-size: 14px;&quot;&gt;Can we combine both these tests? All results analysed&lt;/b&gt;" style="rounded=0;whiteSpace=wrap;html=1;fillColor=#d5e8d4;strokeColor=#82b366;strokeWidth=2;fontSize=14;" parent="1" vertex="1">
          <mxGeometry x="80" y="920" width="680" height="40" as="geometry" />
        </mxCell>
        <mxCell id="Zoo3l0SFgkOkhClSdUuT-41" value="Legend" style="rounded=0;whiteSpace=wrap;html=1;fillColor=#e1d5e7;strokeColor=#9673a6;strokeWidth=2;fontSize=14;" parent="1" vertex="1">
          <mxGeometry x="60" y="40" width="200" height="20" as="geometry" />
        </mxCell>
        <mxCell id="Zoo3l0SFgkOkhClSdUuT-42" value="Done" style="rounded=0;whiteSpace=wrap;html=1;fillColor=#d5e8d4;strokeColor=#82b366;strokeWidth=2;fontSize=14;" parent="1" vertex="1">
          <mxGeometry x="60" y="60" width="100" height="20" as="geometry" />
        </mxCell>
        <mxCell id="Zoo3l0SFgkOkhClSdUuT-45" value="Deliverable" style="rounded=0;whiteSpace=wrap;html=1;fillColor=#f8cecc;strokeColor=#b85450;strokeWidth=2;fontSize=14;" parent="1" vertex="1">
          <mxGeometry x="160" y="60" width="100" height="20" as="geometry" />
        </mxCell>
        <mxCell id="1Azex70Hqo9EGGP9AY3P-23" style="edgeStyle=orthogonalEdgeStyle;rounded=0;orthogonalLoop=1;jettySize=auto;html=1;strokeColor=#00FFFF;strokeWidth=2;fontSize=14;" parent="1" source="1Azex70Hqo9EGGP9AY3P-6" target="Zoo3l0SFgkOkhClSdUuT-4" edge="1">
          <mxGeometry relative="1" as="geometry" />
        </mxCell>
        <mxCell id="1Azex70Hqo9EGGP9AY3P-6" value="Small Punch Test" style="whiteSpace=wrap;html=1;fillColor=#d5e8d4;strokeColor=#82b366;rounded=0;strokeWidth=2;fontSize=14;" parent="1" vertex="1">
          <mxGeometry x="100" y="190" width="120" height="60" as="geometry" />
        </mxCell>
        <mxCell id="1Azex70Hqo9EGGP9AY3P-10" style="edgeStyle=orthogonalEdgeStyle;rounded=0;orthogonalLoop=1;jettySize=auto;html=1;entryX=1;entryY=0.5;entryDx=0;entryDy=0;strokeColor=#00FFFF;strokeWidth=2;fontSize=14;" parent="1" source="1Azex70Hqo9EGGP9AY3P-8" target="Zoo3l0SFgkOkhClSdUuT-6" edge="1">
          <mxGeometry relative="1" as="geometry">
            <Array as="points">
              <mxPoint x="640" y="300" />
            </Array>
          </mxGeometry>
        </mxCell>
        <mxCell id="1Azex70Hqo9EGGP9AY3P-20" style="edgeStyle=orthogonalEdgeStyle;rounded=0;orthogonalLoop=1;jettySize=auto;html=1;strokeColor=#00FFFF;strokeWidth=2;fontSize=14;" parent="1" source="1Azex70Hqo9EGGP9AY3P-8" target="Zoo3l0SFgkOkhClSdUuT-7" edge="1">
          <mxGeometry relative="1" as="geometry" />
        </mxCell>
        <mxCell id="1Azex70Hqo9EGGP9AY3P-8" value="Small Ring Test" style="whiteSpace=wrap;html=1;fillColor=#d5e8d4;strokeColor=#82b366;rounded=0;strokeWidth=2;fontSize=14;" parent="1" vertex="1">
          <mxGeometry x="580" y="190" width="120" height="60" as="geometry" />
        </mxCell>
        <mxCell id="ieAb9yYBDIs8tBCekaEm-2" value="Machine learning (&lt;b style=&quot;font-size: 14px;&quot;&gt;XGBoost and Random Forests&lt;/b&gt;) to analyse rate-dependency and predict stress-strain values" style="rounded=0;whiteSpace=wrap;html=1;fillColor=#d5e8d4;strokeColor=#82b366;strokeWidth=2;fontSize=14;" vertex="1" parent="1">
          <mxGeometry x="480" y="640" width="320" height="80" as="geometry" />
        </mxCell>
        <mxCell id="ieAb9yYBDIs8tBCekaEm-7" style="edgeStyle=orthogonalEdgeStyle;rounded=0;orthogonalLoop=1;jettySize=auto;html=1;entryX=1;entryY=0.5;entryDx=0;entryDy=0;strokeColor=#00FFFF;strokeWidth=2;fontSize=14;" edge="1" parent="1" source="ieAb9yYBDIs8tBCekaEm-4" target="ieAb9yYBDIs8tBCekaEm-5">
          <mxGeometry relative="1" as="geometry" />
        </mxCell>
        <mxCell id="ieAb9yYBDIs8tBCekaEm-4" value="Discovered hidden relationships in test data to obtain a new conversion formula for ring tests, based on a data-driven physics approach" style="rounded=0;whiteSpace=wrap;html=1;fillColor=#d5e8d4;strokeColor=#82b366;strokeWidth=2;fontSize=14;" vertex="1" parent="1">
          <mxGeometry x="480" y="760" width="320" height="80" as="geometry" />
        </mxCell>
        <mxCell id="ieAb9yYBDIs8tBCekaEm-10" style="edgeStyle=orthogonalEdgeStyle;rounded=0;orthogonalLoop=1;jettySize=auto;html=1;strokeWidth=2;strokeColor=#00FFFF;fontSize=14;" edge="1" parent="1" source="ieAb9yYBDIs8tBCekaEm-5" target="Zoo3l0SFgkOkhClSdUuT-38">
          <mxGeometry relative="1" as="geometry" />
        </mxCell>
        <mxCell id="ieAb9yYBDIs8tBCekaEm-5" value="Perform tests on known and unknown materials" style="rounded=0;whiteSpace=wrap;html=1;fillColor=#d5e8d4;strokeColor=#82b366;strokeWidth=2;fontSize=14;" vertex="1" parent="1">
          <mxGeometry x="80" y="760" width="160" height="80" as="geometry" />
        </mxCell>
      </root>
    </mxGraphModel>
  </diagram>
</mxfile>
